<?xml version="1.0" standalone="no"?>
<!DOCTYPE svg PUBLIC "-//W3C//DTD SVG 20010904//EN"
 "http://www.w3.org/TR/2001/REC-SVG-20010904/DTD/svg10.dtd">
<svg version="1.0" xmlns="http://www.w3.org/2000/svg"
 width="512.000000pt" height="512.000000pt" viewBox="0 0 512.000000 512.000000"
 preserveAspectRatio="xMidYMid meet">
<metadata>
Created by potrace 1.11, written by Peter Selinger 2001-2013
</metadata>
<g transform="translate(0.000000,512.000000) scale(0.100000,-0.100000)"
fill="#000000" stroke="none">
<path d="M0 2560 l0 -2560 2560 0 2560 0 0 2560 0 2560 -2560 0 -2560 0 0
-2560z m2739 1484 c310 -70 569 -314 663 -626 19 -66 22 -103 27 -368 l6 -295
115 -5 c102 -4 120 -8 161 -32 56 -33 94 -76 123 -138 21 -44 21 -57 21 -675
0 -585 -1 -633 -18 -668 -26 -55 -91 -122 -145 -149 l-47 -23 -1101 0 -1100 0
-59 30 c-68 35 -126 103 -145 169 -8 29 -10 223 -8 666 3 618 3 625 25 665 11
22 38 57 58 77 61 60 96 72 222 76 l111 4 4 286 c4 277 5 290 31 375 109 355
389 596 752 647 75 11 220 3 304 -16z"/>
<path d="M2413 3576 c-138 -44 -252 -171 -282 -314 -6 -30 -11 -151 -11 -282
l0 -230 421 0 420 0 -3 268 -3 267 -32 67 c-19 40 -53 89 -83 118 -29 30 -78
64 -118 83 -60 29 -78 32 -167 34 -63 2 -116 -2 -142 -11z"/>
</g>
</svg>
